<svg width="223.407471" height="225.593430" viewBox="0 0 223.407 225.593" fill="none" xmlns="http://www.w3.org/2000/svg" xmlns:xlink="http://www.w3.org/1999/xlink">
	<desc>
			Created with Pixso.
	</desc>
	<defs/>
	<rect id="Rectangle 1" x="54.488647" y="77.861206" rx="1.000000" width="115.402412" height="4.212005" transform="rotate(-16.2639 54.488647 77.861206)" fill="#FFFFFF" fill-opacity="1.000000"/>
	<rect id="Rectangle 5" y="39.833008" rx="2.000000" width="115.402412" height="4.212005" transform="rotate(-16.2639 0.000000 39.833008)" fill="#FFFFFF" fill-opacity="1.000000"/>
	<rect id="Rectangle 9" y="225.118896" rx="2.000000" width="185.915497" height="4.036199" transform="rotate(-90 0.000000 225.118896)" fill="#FFFFFF" fill-opacity="1.000000"/>
	<rect id="Rectangle 10" x="218.963806" y="186.034363" rx="2.000000" width="184.859161" height="4.036199" transform="rotate(-90 218.963806 186.034363)" fill="#FFFFFF" fill-opacity="1.000000"/>
	<rect id="Rectangle 7" y="221.523193" rx="2.000000" width="115.402412" height="4.212005" transform="rotate(-16.2639 0.000000 221.523193)" fill="#FFFFFF" fill-opacity="1.000000"/>
	<rect id="Rectangle 11" x="107.973083" y="36.616394" rx="2.000000" width="28.046652" height="4.036199" transform="rotate(-89.9551 107.973083 36.616394)" fill="#FFFFFF" fill-opacity="1.000000"/>
	<rect id="Rectangle 14" x="176.569702" y="119.886536" rx="1.000000" width="36.316929" height="5.227124" transform="rotate(-89.9558 176.569702 119.886536)" fill="#FFFFFF" fill-opacity="1.000000"/>
	<rect id="Rectangle 16" x="156.136414" y="125.922729" rx="1.000000" width="36.316929" height="4.540724" transform="rotate(-89.9558 156.136414 125.922729)" fill="#FFFFFF" fill-opacity="1.000000"/>
	<rect id="Rectangle 18" x="155.393677" y="125.922058" rx="1.000000" width="36.316929" height="5.283453" transform="rotate(-89.9558 155.393677 125.922058)" fill="#FFFFFF" fill-opacity="1.000000"/>
	<rect id="Rectangle 15" x="157.005005" y="104.436401" rx="1.000000" width="22.727617" height="5.734877" transform="rotate(-18.6621 157.005005 104.436401)" fill="#FFFFFF" fill-opacity="1.000000"/>
	<rect id="Rectangle 12" x="107.972900" y="218.544556" rx="2.000000" width="28.284697" height="4.036199" transform="rotate(-89.9551 107.972900 218.544556)" fill="#FFFFFF" fill-opacity="1.000000"/>
	<rect id="Rectangle 8" x="107.466919" y="215.452576" rx="2.000000" width="119.644989" height="4.212005" transform="rotate(-16.2639 107.466919 215.452576)" fill="#FFFFFF" fill-opacity="1.000000"/>
	<rect id="Rectangle 6" x="108.622437" y="33.130981" rx="2.000000" width="118.298859" height="4.212005" transform="rotate(-16.2639 108.622437 33.130981)" fill="#FFFFFF" fill-opacity="1.000000"/>
	<path id="Rectangle 2" d="M58.71 189.39L163.2 46.87C163.52 46.43 164.14 46.34 164.57 46.69L165.43 47.38C166.29 48.08 166.46 49.36 165.81 50.25L61.91 191.96C61.59 192.41 60.97 192.49 60.54 192.14L58.9 190.82C58.47 190.48 58.39 189.84 58.71 189.39Z" fill="#FFFFFF" fill-opacity="1.000000" fill-rule="evenodd"/>
	<path id="Rectangle 3" d="M164.02 163.94L56.18 81.86C55.3 81.19 55.1 79.91 55.73 79L56.39 78.05C56.71 77.59 57.32 77.5 57.76 77.83L166.39 160.52C166.83 160.86 166.93 161.5 166.62 161.95L165.38 163.73C165.07 164.18 164.46 164.28 164.02 163.94Z" fill="#FFFFFF" fill-opacity="1.000000" fill-rule="evenodd"/>
	<path id="D" d="M63.06 154.5C73.66 150.8 77.69 147.89 77.69 136.01C77.69 124.16 74.88 112.24 63.06 115.94L50.45 119.11L50.45 157.14L63.06 154.5ZM56.5 150.27L56.5 123.33L65.58 120.69C72.09 120.69 72.4 129.64 72.4 138.09C72.4 142.03 71.59 143.98 70.12 145.52C68.61 147.1 66.09 147.63 62.74 148.69L56.5 150.27Z" fill="#FFFFFF" fill-opacity="1.000000" fill-rule="nonzero"/>
</svg>
